<?xml version="1.0" encoding="UTF-8"?><svg version="1.1" width="38px" height="34px" viewBox="0 0 38.0 34.0" xmlns="http://www.w3.org/2000/svg" xmlns:xlink="http://www.w3.org/1999/xlink"><defs><linearGradient id="i0" x1="-0.941922794px" y1="4.11051471px" x2="30.8008824px" y2="12.0226471px" gradientUnits="userSpaceOnUse"><stop stop-color="#593CF3" offset="0%"></stop><stop stop-color="#C2D2FE" offset="32.8127%"></stop><stop stop-color="#C6A7E6" offset="70.8089%"></stop><stop stop-color="#FFC38C" offset="100%"></stop></linearGradient><linearGradient id="i1" x1="12.0566176px" y1="-2.449px" x2="15.8243382px" y2="22.9829412px" gradientUnits="userSpaceOnUse"><stop stop-color="#0079FE" offset="0%"></stop><stop stop-color="#AFC3FB" offset="47.1787%"></stop><stop stop-color="#C3D3FF" offset="100%"></stop></linearGradient><linearGradient id="i2" x1="36.4085294px" y1="9.88235294px" x2="21.325px" y2="9.10213235px" gradientUnits="userSpaceOnUse"><stop stop-color="#FFC38C" offset="0%"></stop><stop stop-color="rgba(255, 195, 140, 0)" offset="100%"></stop></linearGradient><clipPath id="i3"><path d="M38,0 L38,34 L0,34 L0,0 L38,0 Z"></path></clipPath></defs><g transform="translate(3.0 3.000000000000057)"><g transform="translate(0.0 13.786249999999995)"><path d="M31.8313971,4.59470588 L15.9166176,13.7841176 L0,4.59279412 L7.95735294,0" stroke="url(#i0)" stroke-width="2.12077941" fill="none" stroke-linecap="round" stroke-linejoin="round"></path></g><path d="M15.9166176,0 L0,9.19132353 L7.95735294,13.7860294 L23.8739706,4.59658824 L31.8313971,9.18941176 L7.95735294,22.9735294" stroke="url(#i1)" stroke-width="2.12077941" fill="none" stroke-linecap="round" stroke-linejoin="round"></path><path d="M15.9166176,0 L0,9.19132353 L7.95735294,13.7860294 L23.8739706,4.59658824 L31.8313971,9.18941176 L7.95735294,22.9735294" stroke="url(#i2)" stroke-width="2.12077941" fill="none" stroke-linecap="round" stroke-linejoin="round"></path></g><g clip-path="url(#i3)"><polygon points="0,0 38,0 38,34 0,34 0,0 0,0" stroke="rgba(150, 150, 150, 0.001)" stroke-width="2" fill="none" stroke-miterlimit="5"></polygon></g></svg>