<?xml version="1.0" encoding="UTF-8"?><svg version="1.1" width="102px" height="34px" viewBox="0 0 102.0 34.0" xmlns="http://www.w3.org/2000/svg" xmlns:xlink="http://www.w3.org/1999/xlink"><defs><clipPath id="i0"><path d="M42.0088235,15.6811397 L44.0448529,20.1206985 C44.2433824,20.5589338 44.2433824,21.1669485 44.2433824,21.6476103 L44.5257353,21.6476103 C44.5257353,21.1669485 44.5117647,20.5589338 44.7235294,20.1206985 L46.7595588,15.6811397 L48.5272059,15.6811397 L45.1904412,22.7362868 C44.9779412,23.1745956 44.7941176,23.5280515 44.5823529,23.9804779 C43.9742647,25.3519485 43.3808824,26.2850368 42.1647059,26.2850368 L40.4683824,26.2850368 L40.4683824,24.8287868 L41.5286765,24.8287868 C42.3911765,24.8287868 42.6595588,24.3622426 43.0698529,23.5421691 L43.55,22.5807721 L40.2419118,15.6811397 L42.0088235,15.6811397 Z M34.9360294,15.4690809 C35.8977941,15.4690809 36.675,15.7943015 37.2125,16.3598162 C37.5095588,16.6567279 37.5941176,17.2364338 37.7492647,17.6323162 L38.0044118,17.5333456 C37.8625,17.1374632 37.6220588,16.6426103 37.5941176,16.2184191 L37.5654412,15.6811397 L39.05,15.6811397 L39.05,22.9483456 C39.05,24.8712132 38.0323529,26.2850368 35.2470588,26.2850368 C32.9845588,26.2850368 31.7124265,25.1964338 31.6134559,23.485625 L33.1830882,23.485625 C33.2816176,24.6308456 34.3,24.8995221 35.1338235,24.8995221 C36.8588235,24.8995221 37.5654412,24.0935662 37.5654412,22.8211397 C37.5654412,22.5666544 37.5654412,22.3545956 37.5801471,22.1424632 C37.6080882,21.7324632 37.8625,21.2517279 38.0044118,20.8558456 L37.7352941,20.756875 C37.5941176,21.1527574 37.5095588,21.7183456 37.2264706,22.029375 C36.6889706,22.6231985 35.9117647,22.9766544 34.9360294,22.9766544 C32.8433824,22.9766544 31.3448529,21.2800368 31.3448529,19.1734191 C31.3448529,17.0667279 32.8433824,15.4690809 34.9360294,15.4690809 Z M20.4339706,15.4690809 C22.7809559,15.4690809 24.2372059,17.1798897 24.2230882,19.1168015 L24.2230882,19.710625 L18.2566176,19.710625 C18.2566176,20.5589338 19.0200735,21.6759191 20.6177941,21.6759191 C21.6357353,21.6759191 22.2577941,21.1669485 22.4133824,20.7286397 L24.0675735,20.7286397 C23.8696324,21.4638603 22.8658088,22.9766544 20.745,22.9766544 C18.01625,22.9766544 16.5316912,21.2800368 16.5316912,19.1734191 C16.5316912,17.0667279 18.1435294,15.4690809 20.4339706,15.4690809 Z M30.3382353,15.4690809 L30.3382353,16.8546691 C28.6274265,16.8546691 26.9025735,17.4484926 26.9025735,19.3995956 L26.9025735,22.7504044 L25.4180147,22.7504044 L25.4180147,15.6811397 L26.9025735,15.6811397 L26.9025735,16.0063603 C26.9025735,16.4870956 26.6480882,17.0526103 26.4642647,17.4909191 L26.7328676,17.6040074 C26.9166912,17.1515809 27.1005147,16.5436397 27.4680882,16.2326103 C28.1608824,15.5963603 28.8819853,15.4690809 30.3382353,15.4690809 Z M7.28139706,12.8534926 L7.28139706,14.3238603 L2.07838235,14.3238603 L2.07838235,16.9395221 L6.92794118,16.9395221 L6.92794118,18.4098897 L2.07838235,18.4098897 L2.07838235,21.2800368 L7.35205882,21.2800368 L7.35205882,22.7504044 L0.523161765,22.7504044 L0.523161765,12.8534926 L7.28139706,12.8534926 Z M12.8227941,15.4690809 C14.2790441,15.4690809 15.3960294,16.2891544 15.3960294,17.9009191 L15.3960294,22.7504044 L13.9114706,22.7504044 L13.9114706,18.9612868 C13.9114706,17.5333456 13.3741912,16.9112132 12.2572794,16.9112132 C11.0413235,16.9112132 10.0091912,17.5474632 10.0091912,18.9612868 L10.0091912,22.7504044 L8.52470588,22.7504044 L8.52470588,15.6811397 L10.0091912,15.6811397 L10.0091912,15.8225368 C10.0091912,16.3456985 9.75470588,16.9677574 9.55676471,17.4484926 L9.81125,17.5474632 C10.0091912,17.0667279 10.2071324,16.388125 10.6172059,16.0629044 C11.2392647,15.5539338 11.8613971,15.4690809 12.8227941,15.4690809 Z M35.0911765,16.8970956 C33.6066176,16.8970956 32.8294118,17.9150368 32.8294118,19.2157721 C32.8294118,20.5165809 33.6066176,21.5486397 35.0911765,21.5486397 C36.5051471,21.5486397 37.2691176,20.6296691 37.3536765,19.4137132 L37.3536765,19.0178309 C37.2691176,17.8160662 36.5051471,16.8970956 35.0911765,16.8970956 Z M20.4622059,16.6991544 C19.1614706,16.6991544 18.2707353,17.6605515 18.2707353,18.6220221 L22.5264706,18.6220221 C22.5264706,17.5615809 21.7347059,16.6991544 20.4622059,16.6991544 Z M13.8263971,2.95495588 C15.9613235,2.95495588 17.3893382,4.58091912 17.3610294,6.68753676 C17.3186029,8.73761029 15.9047794,10.4625368 13.8405147,10.4625368 C12.8932353,10.4625368 12.1580882,10.1090809 11.6349265,9.55768382 C11.3380147,9.24658088 11.2390441,8.68106618 11.1118382,8.27106618 L10.8431618,8.37003676 C10.9845588,8.76591912 11.1966176,9.27488971 11.1966176,9.69900735 L11.1966176,13.7850368 L9.71205882,13.7850368 L9.71205882,3.18116912 L11.1966176,3.18116912 L11.1966176,3.69016176 C11.1966176,4.11430147 10.9845588,4.60915441 10.8431618,5.01915441 L11.1118382,5.10400735 C11.2531618,4.708125 11.3380147,4.12841912 11.6208088,3.83154412 C12.1438971,3.28013971 12.8791176,2.95495588 13.8263971,2.95495588 Z M21.6282353,2.96909559 C22.5896324,2.96909559 23.3389706,3.29427941 23.8621324,3.84568382 C24.1590441,4.15672794 24.2438235,4.73643382 24.3711029,5.13231618 L24.6397059,5.04746324 C24.5125,4.63746324 24.2721324,4.14261029 24.2580147,3.71843382 L24.2438235,3.18116912 L25.7283824,3.18116912 L25.7283824,10.2504044 L24.2438235,10.2504044 L24.2580147,9.67077206 C24.2721324,9.24658088 24.5125,8.73761029 24.6397059,8.32761029 L24.3711029,8.24275735 C24.2438235,8.65275735 24.1590441,9.21834559 23.87625,9.54349265 C23.3530882,10.1231985 22.5896324,10.4766544 21.6282353,10.4766544 C19.5216176,10.4766544 18.0228676,8.78003676 18.0228676,6.67341912 C18.0228676,4.56672794 19.5216176,2.96909559 21.6282353,2.96909559 Z M39.5397059,2.96909559 C40.5014706,2.96909559 41.2507353,3.29427941 41.7735294,3.84568382 C42.0705882,4.15672794 42.1558824,4.73643382 42.2830882,5.13231618 L42.5514706,5.04746324 C42.4242647,4.63746324 42.1838235,4.14261029 42.1698529,3.71843382 L42.1558824,3.18116912 L43.6404412,3.18116912 L43.6404412,10.2504044 L42.1558824,10.2504044 L42.1698529,9.67077206 C42.1838235,9.24658088 42.4242647,8.73761029 42.5514706,8.32761029 L42.2830882,8.24275735 C42.1558824,8.65275735 42.0705882,9.21834559 41.7882353,9.54349265 C41.2647059,10.1231985 40.5014706,10.4766544 39.5397059,10.4766544 C37.4330882,10.4766544 35.9345588,8.78003676 35.9345588,6.67341912 C35.9345588,4.56672794 37.4330882,2.96909559 39.5397059,2.96909559 Z M4.28397059,0.141389706 C6.12198529,0.141389706 7.45102941,1.03211765 8.15794118,2.09250735 L6.85720588,2.71460294 C6.34823529,2.02181618 5.38683824,1.49868382 4.01536765,1.49868382 C2.94080882,1.49868382 1.88044118,1.93698529 1.88044118,2.72874265 C1.88044118,4.26981618 8.39830882,4.08603676 8.39830882,7.50753676 C8.39830882,9.44452206 6.46132353,10.4625368 4.02948529,10.4625368 C2.07838235,10.4625368 0.791764706,9.58591912 0,8.15790441 L1.31492647,7.54996324 C1.85220588,8.53966912 2.87014706,8.97797794 4.17088235,8.97797794 C5.64132353,8.97797794 6.53205882,8.41246324 6.53205882,7.62069853 C6.53205882,5.51400735 0.183823529,5.86746324 0.183823529,2.81357353 C0.183823529,1.06038971 2.16323529,0.141389706 4.28397059,0.141389706 Z M29.9804412,0.678654412 L29.9804412,3.19530882 L31.8184559,3.19530882 L31.8184559,4.52430147 L29.9804412,4.52430147 L29.9804412,8.10136029 C29.9804412,8.69518382 30.2491176,8.85069853 30.9136029,8.85069853 L31.7477941,8.85069853 L31.7477941,10.2504044 L30.2349265,10.2504044 C29.0190441,10.2504044 28.4958824,9.20415441 28.4958824,8.10136029 L28.4958824,4.52430147 L27.0820588,4.52430147 L27.0820588,3.19530882 L28.4958824,3.19530882 L28.4958824,0.678654412 L29.9804412,0.678654412 Z M34.7279412,3.18116912 L34.7279412,10.2504044 L33.2433824,10.2504044 L33.2433824,3.18116912 L34.7279412,3.18116912 Z M46.9875,0 L46.9875,8.10136029 C46.9875,8.68106618 47.1992647,8.85069853 47.8352941,8.85069853 L48.7404412,8.85069853 L48.7404412,10.2504044 L47.7647059,10.2504044 C46.2382353,10.2504044 45.4889706,9.68488971 45.4889706,8.53966912 L45.4889706,0 L46.9875,0 Z M39.6110294,4.35466912 C38.2389706,4.35466912 37.4191176,5.35849265 37.4191176,6.67341912 C37.4191176,7.98827206 38.2536765,9.07694853 39.6110294,9.07694853 C40.9536765,9.07694853 41.7595588,7.93172794 41.8161765,6.67341912 C41.8161765,5.27363971 41.0389706,4.35466912 39.6110294,4.35466912 Z M21.6988971,4.35466912 C20.3275,4.35466912 19.5074265,5.35849265 19.5074265,6.67341912 C19.5074265,7.98827206 20.3416176,9.07694853 21.6988971,9.07694853 C23.0420588,9.07694853 23.8479412,7.93172794 23.9045588,6.67341912 C23.9045588,5.27363971 23.1269118,4.35466912 21.6988971,4.35466912 Z M13.6708824,4.35466912 C12.2146324,4.35466912 11.40875,5.344375 11.40875,6.65922794 C11.40875,7.98827206 12.2146324,9.07694853 13.6708824,9.07694853 C15.1413235,9.07694853 15.8623529,7.98827206 15.8623529,6.65922794 C15.8623529,5.344375 15.1413235,4.35466912 13.6708824,4.35466912 Z M34.7845588,0.353463235 L34.7845588,1.90870588 L33.1588235,1.90870588 L33.1588235,0.353463235 L34.7845588,0.353463235 Z"></path></clipPath><clipPath id="i1"><path d="M2.14191176,0 L2.14191176,0.517426471 L1.34852941,0.517426471 L1.34852941,2.96904412 L0.793382353,2.96904412 L0.793382353,0.517426471 L0,0.517426471 L0,0 L2.14191176,0 Z M3.35955882,0 L4.16102941,2.04014706 C4.21617647,2.18860294 4.20735294,2.38801471 4.20735294,2.54492647 L4.30073529,2.54492647 C4.30073529,2.38801471 4.28823529,2.18860294 4.34338235,2.04014706 L5.14485294,0 L5.98897059,0 L5.98897059,2.96904412 L5.43308824,2.96904412 L5.43308824,0.869485294 C5.43308824,0.712573529 5.50147059,0.517426471 5.52647059,0.360514706 L5.43308824,0.343529412 C5.40367647,0.500514706 5.39926471,0.708308824 5.34852941,0.856764706 L4.58088235,2.96904412 L3.92352941,2.96904412 L3.15147059,0.856764706 C3.10073529,0.708308824 3.09632353,0.500514706 3.06691176,0.347794118 L2.97352941,0.360514706 C2.99852941,0.517426471 3.06691176,0.716838235 3.06691176,0.869485294 L3.06691176,2.96904412 L2.51102941,2.96904412 L2.51102941,0 L3.35955882,0 Z"></path></clipPath><linearGradient id="i2" x1="-0.941922794px" y1="4.11051471px" x2="30.8008824px" y2="12.0226471px" gradientUnits="userSpaceOnUse"><stop stop-color="#593CF3" offset="0%"></stop><stop stop-color="#C2D2FE" offset="32.8127%"></stop><stop stop-color="#C6A7E6" offset="70.8089%"></stop><stop stop-color="#FFC38C" offset="100%"></stop></linearGradient><linearGradient id="i3" x1="12.0566176px" y1="-2.449px" x2="15.8243382px" y2="22.9829412px" gradientUnits="userSpaceOnUse"><stop stop-color="#0079FE" offset="0%"></stop><stop stop-color="#AFC3FB" offset="47.1787%"></stop><stop stop-color="#C3D3FF" offset="100%"></stop></linearGradient><linearGradient id="i4" x1="36.4085294px" y1="9.88235294px" x2="21.325px" y2="9.10213235px" gradientUnits="userSpaceOnUse"><stop stop-color="#FFC38C" offset="0%"></stop><stop stop-color="rgba(255, 195, 140, 0)" offset="100%"></stop></linearGradient><clipPath id="i5"><path d="M102,0 L102,34 L0,34 L0,0 L102,0 Z"></path></clipPath></defs><g transform="translate(2.9999999999999787 3.000000000000039)"><g transform="translate(40.125 1.7824632352941308)"><g clip-path="url(#i0)"><polygon points="0,0 48.7404412,0 48.7404412,26.2850368 0,26.2850368 0,0" stroke="none" fill="#FFFFFF"></polygon></g></g><g transform="translate(91.35882352941178 14.817647058823525)"><g clip-path="url(#i1)"><polygon points="0,0 5.98897059,0 5.98897059,2.96904412 0,2.96904412 0,0" stroke="none" fill="#FFFFFF"></polygon></g></g><g transform="translate(0.0 13.786249999999995)"><path d="M31.8313971,4.59470588 L15.9166176,13.7841176 L0,4.59279412 L7.95735294,0" stroke="url(#i2)" stroke-width="2.12077941" fill="none" stroke-linecap="round" stroke-linejoin="round"></path></g><path d="M15.9166176,0 L0,9.19132353 L7.95735294,13.7860294 L23.8739706,4.59658824 L31.8313971,9.18941176 L7.95735294,22.9735294" stroke="url(#i3)" stroke-width="2.12077941" fill="none" stroke-linecap="round" stroke-linejoin="round"></path><path d="M15.9166176,0 L0,9.19132353 L7.95735294,13.7860294 L23.8739706,4.59658824 L31.8313971,9.18941176 L7.95735294,22.9735294" stroke="url(#i4)" stroke-width="2.12077941" fill="none" stroke-linecap="round" stroke-linejoin="round"></path></g><g clip-path="url(#i5)"><polygon points="0,0 102,0 102,34 0,34 0,0 0,0" stroke="rgba(150, 150, 150, 0.001)" stroke-width="2" fill="none" stroke-miterlimit="5"></polygon></g></svg>